<svg width="35" height="27" viewBox="0 0 35 27" fill="none" xmlns="http://www.w3.org/2000/svg">
<path d="M12.3205 0L14.2083 3.47727C13.1485 4.97727 12.1549 6.64773 11.2276 8.48864C10.3665 10.3295 9.86966 12.2386 9.73718 14.2159L15.2019 15.2386V27H0V18.6136C0 13.7727 1.09295 9.88637 3.27885 6.95455C5.53098 3.95455 8.54487 1.63636 12.3205 0ZM31.9936 0L33.8814 3.47727C32.8216 4.97727 31.828 6.64773 30.9006 8.48864C30.0395 10.3295 29.5427 12.2386 29.4103 14.2159L34.875 15.2386V27H19.6731V18.6136C19.6731 13.7727 20.766 9.88637 22.9519 6.95455C25.2041 3.95455 28.218 1.63636 31.9936 0Z" fill="white"/>
</svg>
