<svg width="51" height="17" viewBox="0 0 51 17" fill="none" xmlns="http://www.w3.org/2000/svg">
<g clip-path="url(#clip0_101_390)">
<path fill-rule="evenodd" clip-rule="evenodd" d="M12.2553 5.08614C12.4042 5.06164 12.5566 5.10955 12.6657 5.21499C13.9331 6.44158 14.6359 8.08323 14.6444 9.8375C14.6618 13.3949 11.7819 16.2891 8.22463 16.2891C5.28203 16.2891 2.70531 14.2969 1.95851 11.4445C1.81699 10.9033 1.74394 10.3627 1.74138 9.8375C1.73634 8.80654 1.97234 7.81547 2.44282 6.89192C2.90585 5.98395 3.58933 5.1889 4.41947 4.59247C4.42429 4.589 4.4292 4.58563 4.43415 4.58232C4.46475 4.56208 4.49742 4.53809 4.53202 4.51268L4.53557 4.51007C4.53906 4.50751 4.54254 4.50495 4.54602 4.50239C4.55988 4.49221 4.57376 4.48201 4.58772 4.47192C5.90766 3.52409 6.73238 2.05475 6.85169 0.439703C6.86344 0.280311 6.95428 0.137812 7.09366 0.0600884C7.23305 -0.0176036 7.40229 -0.0201806 7.54471 0.0532163C9.18047 0.896533 10.3857 2.3995 10.8512 4.17671C10.9927 4.71779 11.0658 5.25842 11.0683 5.78378C11.0697 6.05757 11.0532 6.33064 11.019 6.60209C11.373 6.22632 11.6734 5.80124 11.9092 5.33869C11.9778 5.20424 12.1062 5.11054 12.2553 5.08614ZM7.89979 11.8974C8.94514 11.8974 9.78843 11.05 9.78332 10.0047C9.77821 8.95932 8.92664 8.1119 7.88129 8.1119C6.83593 8.1119 5.99264 8.95932 5.99775 10.0047C6.00286 11.05 6.85443 11.8974 7.89979 11.8974Z" fill="white"/>
</g>
<path d="M22.3237 13.7258C22.8228 13.7258 23.2639 13.6346 23.647 13.4522C24.03 13.2602 24.3214 12.9723 24.5211 12.5883L24.5258 13.553L26.5417 13.553L26.5033 5.69133L24.3434 5.69133L24.3659 10.2845C24.3681 10.7357 24.2355 11.1004 23.9681 11.3788C23.7006 11.6476 23.3557 11.782 22.9333 11.782C22.5109 11.782 22.1647 11.6476 21.8946 11.3788C21.6245 11.1004 21.4883 10.7357 21.4861 10.2845L21.4637 5.69133H19.3038L19.3271 10.4573C19.3319 11.4364 19.5902 12.2283 20.1019 12.8331C20.6231 13.4282 21.3637 13.7258 22.3237 13.7258Z" fill="white"/>
<path d="M28.0784 4.98579H30.2382L30.2277 2.82599H28.0678L28.0784 4.98579ZM28.1203 13.553H30.2801L30.2417 5.69133L28.0819 5.69133L28.1203 13.553Z" fill="white"/>
<path d="M32.8109 13.553H34.9708L34.9415 7.56316H36.6262L36.617 5.69133H34.9323L34.9318 5.57614C34.9284 4.8754 35.3346 4.52503 36.1505 4.52503C36.2849 4.52503 36.4434 4.53943 36.6259 4.56823L36.6169 2.7252C36.3959 2.6772 36.1414 2.6532 35.8534 2.6532C34.8743 2.6532 34.1124 2.90758 33.5677 3.41633C33.0327 3.92509 32.7674 4.64502 32.7719 5.57614L32.7725 5.69133H31.4478L31.457 7.56316L32.7817 7.56316L32.8109 13.553Z" fill="white"/>
<path d="M37.7664 13.553H39.9262L39.9055 9.3198C39.9027 8.73425 40.0637 8.2831 40.3885 7.96632C40.7133 7.63995 41.1396 7.47677 41.6676 7.47677H42.3443L42.3352 5.60494L41.8744 5.60494C41.3945 5.60494 40.9677 5.69613 40.5943 5.87851C40.2303 6.0513 39.9488 6.38247 39.7496 6.87202L39.7438 5.69133L37.728 5.69133L37.7664 13.553Z" fill="white"/>
<path d="M44.5602 16.7495C46 16.7495 47.0376 15.9288 47.6727 14.2874L51 5.69133L48.6818 5.69133L46.849 10.7453L44.9669 5.69133H42.6487L45.7828 13.553L45.6405 13.8842C45.5266 14.1434 45.3789 14.3737 45.1975 14.5753C45.0161 14.7769 44.7142 14.8777 44.2918 14.8777C43.9463 14.8777 43.6197 14.8297 43.312 14.7337L43.3207 16.5048C43.4843 16.5911 43.6718 16.6535 43.8831 16.6919C44.1041 16.7303 44.3298 16.7495 44.5602 16.7495Z" fill="white"/>
<defs>
<clipPath id="clip0_101_390">
<rect width="16.2013" height="16.2013" fill="white" transform="matrix(1.00544 0 0.00491348 1.00543 0 0)"/>
</clipPath>
</defs>
</svg>
