<svg width="26" height="32" viewBox="0 0 26 32" fill="none" xmlns="http://www.w3.org/2000/svg">
<path d="M21.7156 16.9688C21.6819 12.9392 25.0201 10.975 25.1755 10.8873C23.2834 8.13337 20.3506 7.75539 19.3167 7.72839C16.8502 7.47193 14.4647 9.19986 13.2078 9.19986C11.9306 9.19986 9.99784 7.75539 7.90978 7.79592C5.22697 7.83638 2.71989 9.38886 1.3481 11.7918C-1.49012 16.6988 0.625049 23.9074 3.34837 27.8763C4.70661 29.8202 6.29471 31.9869 8.37608 31.9126C10.4101 31.8316 11.1737 30.6166 13.6267 30.6166C16.0595 30.6166 16.7758 31.9126 18.8977 31.8654C21.0804 31.8316 22.459 29.9147 23.7699 27.9573C25.3445 25.7299 25.973 23.5362 26 23.4282C25.9459 23.3945 21.7562 21.7948 21.7156 16.9688ZM17.7084 5.11626C18.8031 3.74608 19.5531 1.88992 19.3437 0C17.7624 0.0674609 15.7756 1.09342 14.6403 2.4299C13.6335 3.61109 12.7279 5.54147 12.9645 7.35717C14.735 7.4854 16.5663 6.45944 17.7084 5.11626Z" fill="black"/>
</svg>
