<svg width="45" height="15" viewBox="0 0 45 15" fill="none" xmlns="http://www.w3.org/2000/svg">
<path d="M17.0577 0.261257L11.2452 14.5707H7.40727L4.45662 3.15131C4.27743 2.44794 4.12336 2.19026 3.58741 1.89393C2.71261 1.41103 1.2693 0.958419 -2.96992e-06 0.677359L0.0840846 0.261496L6.26202 0.261496C7.0495 0.261496 7.76002 0.795939 7.94333 1.72048L9.51266 10.0005L13.2436 0.261257L17.0577 0.261257ZM32.1427 9.89866C32.1397 6.122 27.001 5.91395 27.0281 4.22688C27.0366 3.71343 27.5134 3.16753 28.5623 3.02819C29.0822 2.95877 30.5153 2.9058 32.1448 3.66857L32.7677 0.634175C31.8925 0.311122 30.767 0 29.3685 0C25.7798 0 23.2637 1.94499 23.256 4.73006C23.2429 6.79006 25.0744 7.93959 26.4533 8.6241C27.8718 9.32508 28.3489 9.77554 28.3466 10.4026C28.3412 11.3624 27.2246 11.7861 26.1793 11.8029C24.3546 11.8315 23.293 11.2994 22.447 10.8993L21.8042 14.0342C22.6545 14.4309 24.222 14.7771 25.8455 14.7945C29.6598 14.7943 32.1456 12.8736 32.1427 9.89866ZM41.642 14.5707H45L41.999 0.261257L38.8996 0.261257C38.2027 0.261257 37.6168 0.674974 37.3597 1.31106L31.976 14.5707H35.7885L36.5351 12.4332H41.1933L41.642 14.5707ZM37.5661 9.50045L39.4509 4.12786L40.577 9.50045H37.5661ZM22.2454 0.261257L19.3131 14.5707H15.6825L18.616 0.261257L22.2454 0.261257Z" fill="white"/>
</svg>
