<svg width="22" height="22" viewBox="0 0 22 22" fill="none" xmlns="http://www.w3.org/2000/svg">
<g clip-path="url(#clip0_101_112)">
<path d="M11.2423 8.56815L9.74616 9.36367C9.25038 9.62728 9.06217 10.2429 9.32578 10.7387C9.58939 11.2345 10.205 11.4227 10.7008 11.159L11.2992 10.8408C11.795 10.5772 12.4106 10.7654 12.6742 11.2612C12.9379 11.757 12.7496 12.3726 12.2539 12.6362L10.7577 13.4317M9.72719 8.60611L10.0454 9.20457M11.9546 12.7953L12.2728 13.3938M14.5908 9.09071L14.5968 9.08752M7.40925 12.9092L7.41524 12.906M3.80623 11.9079L6.2246 16.4562C6.58102 17.1265 6.75924 17.4617 7.02583 17.6483C7.26033 17.8125 7.54079 17.8983 7.82702 17.8933C8.15242 17.8876 8.48759 17.7094 9.15793 17.353L17.297 13.0254C17.9673 12.6689 18.3025 12.4907 18.4892 12.2241C18.6534 11.9896 18.7391 11.7092 18.7341 11.4229C18.7284 11.0975 18.5502 10.7624 18.1938 10.092L15.7754 5.54373C15.419 4.87339 15.2408 4.53822 14.9742 4.35155C14.7397 4.18735 14.4592 4.10161 14.173 4.1066C13.8476 4.11228 13.5124 4.2905 12.8421 4.64692L4.70304 8.97453C4.0327 9.33096 3.69753 9.50917 3.51086 9.77576C3.34666 10.0103 3.26091 10.2907 3.26591 10.577C3.27159 10.9024 3.4498 11.2375 3.80623 11.9079ZM14.89 8.9316C14.9779 9.09686 14.9151 9.30206 14.7499 9.38994C14.5846 9.47781 14.3794 9.41507 14.2915 9.24981C14.2037 9.08455 14.2664 8.87935 14.4317 8.79148C14.5969 8.70361 14.8021 8.76634 14.89 8.9316ZM7.70848 12.7501C7.79635 12.9153 7.73362 13.1205 7.56836 13.2084C7.4031 13.2963 7.19789 13.2336 7.11002 13.0683C7.02215 12.903 7.08489 12.6978 7.25015 12.61C7.41541 12.5221 7.62061 12.5848 7.70848 12.7501Z" stroke="#FF5555" stroke-width="1.30704" stroke-linecap="round" stroke-linejoin="round"/>
</g>
<defs>
<clipPath id="clip0_101_112">
<rect width="15.6845" height="15.6845" fill="white" transform="translate(0 7.63693) scale(1.03715) rotate(-28)"/>
</clipPath>
</defs>
</svg>
